<svg width="199" height="72" viewBox="0 0 199 72" fill="none" xmlns="http://www.w3.org/2000/svg">
<path d="M142.455 8.22784C158.735 2.90569 165.8 52.8692 180.205 46.3374C194.61 39.8057 126.175 13.55 142.455 8.22784Z" fill="#97D3E7"/>
<path d="M172.741 51.3691C174.298 51.0138 174.687 50.925 176.61 49.3561" stroke="#1B2027" stroke-width="0.5" stroke-linecap="round"/>
<path d="M142.534 3.71039C143.472 2.15321 143.706 1.76392 145.853 1.2256" stroke="#1B2027" stroke-width="0.5" stroke-linecap="round"/>
<path d="M171.928 49.2045C173.574 49.2591 173.995 49.3766 175.619 48.2474" stroke="#1B2027" stroke-width="0.5" stroke-linecap="round"/>
<path d="M144.635 4.46343C145.264 3.21569 145.35 2.82522 146.832 2.40391" stroke="#1B2027" stroke-width="0.5" stroke-linecap="round"/>
<path d="M158.75 27.7499C160.25 26.7499 161.25 26.2499 162.25 27.2499C163 28 162.75 28.75 161.75 30.7499L160.25 29.2499L158.75 27.7499Z" fill="#EAC226"/>
<path d="M35.9304 50.88C35.2371 50.0267 34.8904 49.2667 34.8904 48.6C34.8904 47.9067 35.4637 47 36.6104 45.88C37.2771 45.24 37.9837 44.92 38.7304 44.92C39.4771 44.92 40.5171 45.5867 41.8504 46.92C42.2237 47.3733 42.7571 47.8133 43.4504 48.24C44.1437 48.64 44.7837 48.84 45.3704 48.84C47.8504 48.84 49.0904 47.8267 49.0904 45.8C49.0904 45.1867 48.7437 44.68 48.0504 44.28C47.3837 43.8533 46.5437 43.5467 45.5304 43.36C44.5171 43.1733 43.4237 42.88 42.2504 42.48C41.0771 42.0533 39.9837 41.56 38.9704 41C37.9571 40.44 37.1037 39.56 36.4104 38.36C35.7437 37.1333 35.4104 35.6667 35.4104 33.96C35.4104 31.6133 36.2771 29.5733 38.0104 27.84C39.7704 26.08 42.1571 25.2 45.1704 25.2C46.7704 25.2 48.2237 25.4133 49.5304 25.84C50.8637 26.24 51.7837 26.6533 52.2904 27.08L53.2904 27.84C54.1171 28.6133 54.5304 29.2667 54.5304 29.8C54.5304 30.3333 54.2104 31.0667 53.5704 32C52.6637 33.3333 51.7304 34 50.7704 34C50.2104 34 49.5171 33.7333 48.6904 33.2C48.6104 33.1467 48.4504 33.0133 48.2104 32.8C47.9971 32.5867 47.7971 32.4133 47.6104 32.28C47.0504 31.9333 46.3304 31.76 45.4504 31.76C44.5971 31.76 43.8771 31.9733 43.2904 32.4C42.7304 32.8 42.4504 33.3733 42.4504 34.12C42.4504 34.84 42.7837 35.4267 43.4504 35.88C44.1437 36.3333 44.9971 36.64 46.0104 36.8C47.0237 36.96 48.1304 37.2133 49.3304 37.56C50.5304 37.88 51.6371 38.28 52.6504 38.76C53.6637 39.24 54.5037 40.08 55.1704 41.28C55.8637 42.4533 56.2104 43.9067 56.2104 45.64C56.2104 47.3733 55.8637 48.9067 55.1704 50.24C54.4771 51.5467 53.5704 52.56 52.4504 53.28C50.2904 54.6933 47.9837 55.4 45.5304 55.4C44.2771 55.4 43.0904 55.2533 41.9704 54.96C40.8504 54.64 39.9437 54.2533 39.2504 53.8C37.8371 52.9467 36.8504 52.12 36.2904 51.32L35.9304 50.88ZM84.4507 31.6C85.1441 33.0133 85.4907 34.5867 85.4907 36.32C85.4907 38.0533 85.1441 39.6267 84.4507 41.04C83.7574 42.4267 82.8641 43.5333 81.7707 44.36C79.5574 46.0667 77.2641 46.92 74.8907 46.92H69.8907V51.44C69.8907 52.0533 69.8641 52.52 69.8107 52.84C69.7841 53.1333 69.6641 53.48 69.4507 53.88C69.0774 54.6 68.0374 54.96 66.3307 54.96C64.4641 54.96 63.3707 54.4667 63.0507 53.48C62.8907 53.0267 62.8107 52.3333 62.8107 51.4V29.2C62.8107 28.5867 62.8241 28.1333 62.8507 27.84C62.9041 27.52 63.0374 27.16 63.2507 26.76C63.6241 26.04 64.6641 25.68 66.3707 25.68H74.9307C77.2774 25.68 79.5574 26.5333 81.7707 28.24C82.8641 29.0667 83.7574 30.1867 84.4507 31.6ZM74.9307 39.84C75.7307 39.84 76.5174 39.5467 77.2907 38.96C78.0641 38.3733 78.4507 37.4933 78.4507 36.32C78.4507 35.1467 78.0641 34.2667 77.2907 33.68C76.5174 33.0667 75.7174 32.76 74.8907 32.76H69.8907V39.84H74.9307Z" fill="#EAC226"/>
<path d="M109.004 27.76L119.804 50.08C120.257 50.9867 120.484 51.6667 120.484 52.12C120.484 53.08 119.711 53.9467 118.164 54.72C117.257 55.1733 116.537 55.4 116.004 55.4C115.497 55.4 115.071 55.28 114.724 55.04C114.404 54.8 114.164 54.5467 114.004 54.28C113.871 54.0133 113.671 53.6133 113.404 53.08L111.324 48.76H100.244L98.1642 53.08C97.8975 53.6133 97.6842 54 97.5242 54.24C97.3908 54.48 97.1508 54.7333 96.8042 55C96.4842 55.24 96.0575 55.36 95.5242 55.36C95.0175 55.36 94.3108 55.1333 93.4042 54.68C91.8575 53.9333 91.0842 53.08 91.0842 52.12C91.0842 51.6667 91.3108 50.9867 91.7642 50.08L102.564 27.72C102.857 27.1067 103.297 26.6133 103.884 26.24C104.497 25.8667 105.137 25.68 105.804 25.68C107.244 25.68 108.311 26.3733 109.004 27.76ZM105.764 37.36L103.124 42.84H108.444L105.764 37.36ZM126.67 29.2C126.67 28.5867 126.683 28.1333 126.71 27.84C126.763 27.52 126.897 27.16 127.11 26.76C127.483 26.04 128.523 25.68 130.23 25.68C132.097 25.68 133.203 26.1733 133.55 27.16C133.683 27.6133 133.75 28.3067 133.75 29.24V51.48C133.75 52.12 133.723 52.5867 133.67 52.88C133.643 53.1733 133.523 53.52 133.31 53.92C132.937 54.64 131.897 55 130.19 55C128.323 55 127.23 54.4933 126.91 53.48C126.75 53.0533 126.67 52.3733 126.67 51.44V29.2ZM163.384 50.04C163.784 51 163.984 51.6933 163.984 52.12C163.984 53.1333 163.157 53.9867 161.504 54.68C160.65 55.0533 159.957 55.24 159.424 55.24C158.917 55.24 158.49 55.12 158.144 54.88C157.824 54.6133 157.584 54.3467 157.424 54.08C157.157 53.5733 156.117 51.16 154.304 46.84L153.064 46.92H148.024V51.44C148.024 52.0533 147.997 52.52 147.944 52.84C147.917 53.1333 147.797 53.48 147.584 53.88C147.21 54.6 146.17 54.96 144.464 54.96C142.597 54.96 141.504 54.4667 141.184 53.48C141.024 53.0267 140.944 52.3333 140.944 51.4V29.2C140.944 28.5867 140.957 28.1333 140.984 27.84C141.037 27.52 141.17 27.16 141.384 26.76C141.757 26.04 142.797 25.68 144.504 25.68H153.144C155.49 25.68 157.77 26.5333 159.984 28.24C161.05 29.0667 161.93 30.1867 162.624 31.6C163.317 33.0133 163.664 34.5867 163.664 36.32C163.664 39.3333 162.664 41.8133 160.664 43.76C161.25 45.1733 162.157 47.2667 163.384 50.04ZM148.024 39.84H153.144C153.917 39.84 154.69 39.5467 155.464 38.96C156.237 38.3733 156.624 37.4933 156.624 36.32C156.624 35.1467 156.237 34.2667 155.464 33.68C154.69 33.0667 153.89 32.76 153.064 32.76H148.024V39.84Z" fill="#1B2027"/>
</svg>
