<svg width="228" height="64" viewBox="0 0 228 64" fill="none" xmlns="http://www.w3.org/2000/svg">
<path d="M0 6.15385C0 2.75517 2.78145 0 6.21253 0H221.787C225.219 0 228 2.75517 228 6.15385V57.8462C228 61.2448 225.219 64 221.787 64H6.21254C2.78145 64 0 61.2448 0 57.8462V6.15385Z" fill="#1C1C1C"/>
<path fill-rule="evenodd" clip-rule="evenodd" d="M101.561 21.2965C100.929 20.0942 99.9571 19.4931 98.6444 19.4931C98.0367 19.4931 97.4593 19.6549 96.9124 19.9786C96.3654 20.3023 95.9582 20.73 95.6908 21.2618L85.8456 40.6483C85.4324 41.4344 85.2258 42.0239 85.2258 42.417C85.2258 43.2493 85.9307 43.9892 87.3407 44.6365C88.1672 45.0296 88.8174 45.2261 89.2915 45.2261C89.7655 45.2261 90.1544 45.1163 90.4583 44.8966C90.7622 44.677 90.9809 44.4631 91.1146 44.255C91.2483 44.047 91.4367 43.7117 91.6798 43.2493L93.576 39.5038H103.676L105.572 43.2493C105.816 43.7117 106.004 44.0585 106.138 44.2897C106.271 44.5209 106.49 44.7406 106.794 44.9487C107.098 45.1567 107.487 45.2608 107.961 45.2608C108.435 45.2608 109.085 45.0643 109.912 44.6712C111.322 44.0007 112.027 43.2493 112.027 42.417C112.027 42.0239 111.82 41.4344 111.407 40.6483L101.561 21.2965ZM98.6079 29.6198L101.051 34.3711H96.2013L98.6079 29.6198ZM117.678 22.545V41.8274C117.678 42.6366 117.751 43.2262 117.897 43.5961C118.189 44.4747 119.186 44.914 120.887 44.914C122.443 44.914 123.391 44.6019 123.731 43.9776C123.926 43.6308 124.041 43.3302 124.078 43.0759C124.114 42.8216 124.133 42.417 124.133 41.8621V22.5797C124.133 21.7705 124.072 21.1693 123.95 20.7763C123.634 19.9208 122.625 19.4931 120.924 19.4931C119.368 19.4931 118.42 19.8052 118.08 20.4295C117.885 20.7763 117.77 21.0826 117.733 21.3485C117.697 21.6144 117.678 22.0132 117.678 22.545ZM151.152 40.6136C150.034 38.2091 149.207 36.3941 148.673 35.1687C150.496 33.4809 151.407 31.3307 151.407 28.7181C151.407 27.2153 151.091 25.8512 150.459 24.6258C149.827 23.4004 149.025 22.4294 148.053 21.7127C146.035 20.2329 143.957 19.4931 141.817 19.4931H133.941C132.385 19.4931 131.437 19.8052 131.097 20.4295C130.903 20.7763 130.787 21.0826 130.751 21.3485C130.714 21.6144 130.696 22.0132 130.696 22.545V41.7927C130.696 42.6019 130.769 43.2031 130.915 43.5961C131.206 44.4516 132.203 44.8793 133.905 44.8793C135.461 44.8793 136.409 44.5672 136.749 43.9429C136.943 43.5961 137.059 43.2898 137.095 43.0239C137.132 42.758 137.15 42.3592 137.15 41.8274V37.9085H141.744L142.875 37.8391C144.528 41.5846 145.476 43.677 145.719 44.1163C145.865 44.3475 146.09 44.573 146.394 44.7926C146.697 45.0122 147.086 45.1221 147.56 45.1221C148.034 45.1221 148.66 44.9602 149.438 44.6365C150.945 44.0354 151.699 43.2955 151.699 42.417C151.699 42.047 151.517 41.4459 151.152 40.6136ZM137.15 31.77V25.6316H141.744C142.498 25.6316 143.227 25.8917 143.932 26.4119C144.637 26.9321 144.99 27.7008 144.99 28.7181C144.99 29.7354 144.637 30.4984 143.932 31.0071C143.227 31.5157 142.522 31.77 141.817 31.77H137.15Z" fill="#D2D2D2"/>
<path d="M22.0707 41.3419L22.3988 41.7234C22.9093 42.417 23.8088 43.1337 25.0972 43.8736C25.7292 44.2666 26.5557 44.5961 27.5767 44.862C28.5977 45.1278 29.6794 45.2608 30.822 45.2608C33.0584 45.2608 35.1611 44.6481 37.1302 43.4227C38.1512 42.7985 38.9777 41.9141 39.6097 40.7696C40.2417 39.6252 40.5578 38.3015 40.5578 36.7987C40.5578 35.2959 40.2478 34.03 39.6279 33.0012C39.008 31.9723 38.2362 31.2498 37.3125 30.8337C36.3887 30.4175 35.3799 30.0649 34.286 29.7759C33.1921 29.4869 32.1833 29.273 31.2595 29.1343C30.3358 28.9956 29.564 28.7297 28.9441 28.3366C28.3242 27.9436 28.0142 27.4292 28.0142 26.7934C28.0142 26.1575 28.2756 25.6605 28.7982 25.3021C29.3209 24.9437 29.9772 24.7645 30.7673 24.7645C31.5573 24.7645 32.2076 24.9148 32.7181 25.2154C32.8882 25.331 33.0766 25.4813 33.2832 25.6662C33.4899 25.8512 33.6297 25.9668 33.7026 26.013C34.4562 26.4755 35.0882 26.7067 35.5987 26.7067C36.4738 26.7067 37.3246 26.1286 38.1512 24.9726C38.7346 24.1634 39.0263 23.5276 39.0263 23.0652C39.0263 22.6028 38.6495 22.0363 37.8959 21.3658L36.9843 20.7069C36.5224 20.337 35.6899 19.9728 34.4866 19.6145C33.2833 19.2561 31.9523 19.0769 30.4938 19.0769C27.7469 19.0769 25.5773 19.8341 23.985 21.3485C22.3928 22.8629 21.5966 24.6374 21.5966 26.672C21.5966 28.1517 21.9066 29.4175 22.5265 30.4695C23.1463 31.5215 23.9182 32.2902 24.8419 32.7758C25.7657 33.2613 26.7623 33.6832 27.8319 34.0416C28.9015 34.4 29.8982 34.6601 30.822 34.8219C31.7457 34.9838 32.5175 35.2439 33.1374 35.6022C33.7573 35.9606 34.0672 36.4057 34.0672 36.9374C34.0672 38.6946 32.9368 39.5732 30.6761 39.5732C30.1413 39.5732 29.5579 39.394 28.9258 39.0356C28.2938 38.6772 27.8076 38.3015 27.4673 37.9085C26.2518 36.7525 25.3038 36.1745 24.6231 36.1745C23.9425 36.1745 23.2983 36.4519 22.6905 37.0068C21.6453 37.9779 21.1226 38.7582 21.1226 39.3477C21.1226 39.9373 21.4386 40.602 22.0707 41.3419Z" fill="#B49003"/>
<path fill-rule="evenodd" clip-rule="evenodd" d="M67.2492 28.7181C67.2492 27.2153 66.9331 25.8512 66.3011 24.6258C65.6691 23.4004 64.8547 22.4294 63.858 21.7127C61.8404 20.2329 59.762 19.4931 57.6228 19.4931H49.8195C48.2637 19.4931 47.3157 19.8052 46.9754 20.4295C46.7809 20.7763 46.6654 21.0826 46.629 21.3485C46.5925 21.6144 46.5743 22.0132 46.5743 22.545V41.7927C46.5743 42.6019 46.6472 43.2031 46.793 43.5961C47.0848 44.4516 48.0814 44.8793 49.7831 44.8793C51.3388 44.8793 52.2869 44.5672 52.6272 43.9429C52.8217 43.5961 52.9372 43.2898 52.9736 43.0239C53.0101 42.758 53.0283 42.3592 53.0283 41.8274V37.9085H57.5863C59.7498 37.9085 61.8404 37.1686 63.858 35.6889C64.8547 34.9722 65.6691 34.0069 66.3011 32.7931C66.9331 31.5793 67.2492 30.221 67.2492 28.7181ZM57.6228 31.77C58.352 31.77 59.0691 31.5157 59.7741 31.0071C60.4791 30.4984 60.8316 29.7354 60.8316 28.7181C60.8316 27.7008 60.4791 26.9321 59.7741 26.4119C59.0691 25.8917 58.3399 25.6316 57.5863 25.6316H53.0283V31.77H57.6228Z" fill="#B49003"/>
<path d="M176.846 13.3222L163.39 49.8212H171.364L183.823 13.3222H176.846Z" fill="#D9D9D9"/>
<path d="M173.856 49.8212L180.833 44.6071H196.781L187.312 13.3222H194.289L206.749 49.8212H173.856Z" fill="#D2D2D2"/>
</svg>
